<mxfile host="app.diagrams.net" modified="2024-03-18T15:55:27.038Z" agent="Mozilla/5.0 (Windows NT 10.0; Win64; x64) AppleWebKit/537.36 (KHTML, like Gecko) Chrome/122.0.0.0 Safari/537.36" version="24.0.6" etag="xOesXPLVOOaSWtaPbCSz" type="github">
  <diagram name="Page-1" id="kQMQTXATmenSAZyp5msM">
    <mxGraphModel>
      <root>
        <mxCell id="0" />
        <mxCell id="1" parent="0" />
      </root>
    </mxGraphModel>
  </diagram>
</mxfile>
